<svg width="707" height="102" viewBox="0 0 707 102" fill="none" xmlns="http://www.w3.org/2000/svg">
<path fill-rule="evenodd" clip-rule="evenodd" d="M92.9632 17.2923L72.8703 25.5815L26.396 77.08L20.2058 97.9154L3.39062 82.7408L23.4836 74.4516L69.9578 22.9532L76.1481 2.11768L92.9632 17.2923Z" fill="#CBCBCB"/>
<path d="M23.597 11.7985C23.597 18.3146 18.3146 23.597 11.7985 23.597C5.28237 23.597 0 18.3146 0 11.7985C0 5.28237 5.28237 0 11.7985 0C18.3146 0 23.597 5.28237 23.597 11.7985Z" fill="#FE9F43"/>
<path d="M58.6119 11.7985C58.6119 18.3146 53.3296 23.597 46.8134 23.597C40.2973 23.597 35.0149 18.3146 35.0149 11.7985C35.0149 5.28237 40.2973 0 46.8134 0C53.3296 0 58.6119 5.28237 58.6119 11.7985Z" fill="#FE9F43"/>
<path d="M94.3881 11.7985C94.3881 18.3146 89.1057 23.597 82.5896 23.597C76.0734 23.597 70.791 18.3146 70.791 11.7985C70.791 5.28237 76.0734 0 82.5896 0C89.1057 0 94.3881 5.28237 94.3881 11.7985Z" fill="#FE9F43"/>
<path d="M58.6119 50.6194C58.6119 57.1355 53.3296 62.4179 46.8134 62.4179C40.2973 62.4179 35.0149 57.1355 35.0149 50.6194C35.0149 44.1033 40.2973 38.8209 46.8134 38.8209C53.3296 38.8209 58.6119 44.1033 58.6119 50.6194Z" fill="#FE9F43"/>
<path d="M94.3881 50.6194C94.3881 57.1355 89.1057 62.4179 82.5896 62.4179C76.0734 62.4179 70.791 57.1355 70.791 50.6194C70.791 44.1033 76.0734 38.8209 82.5896 38.8209C89.1057 38.8209 94.3881 44.1033 94.3881 50.6194Z" fill="#FE9F43"/>
<path d="M23.597 90.2015C23.597 96.7176 18.3146 102 11.7985 102C5.28237 102 0 96.7176 0 90.2015C0 83.6854 5.28237 78.403 11.7985 78.403C18.3146 78.403 23.597 83.6854 23.597 90.2015Z" fill="#FE9F43"/>
<path d="M94.3881 90.2015C94.3881 96.7176 89.1057 102 82.5896 102C76.0734 102 70.791 96.7176 70.791 90.2015C70.791 83.6854 76.0734 78.403 82.5896 78.403C89.1057 78.403 94.3881 83.6854 94.3881 90.2015Z" fill="#FE9F43"/>
<path d="M153.939 61.7829H144.59V85.3886C144.59 88.4971 144.396 91.3143 144.006 93.84C143.617 96.3657 142.618 98.3571 141.012 99.8143C139.454 101.271 136.897 102 133.343 102C129.886 102 127.379 101.271 125.821 99.8143C124.263 98.3086 123.289 96.3171 122.899 93.84C122.559 91.3143 122.388 88.4971 122.388 85.3886V16.6114C122.388 13.5029 122.559 10.71 122.899 8.23286C123.289 5.70714 124.263 3.71571 125.821 2.25857C127.379 0.752857 129.886 0 133.343 0H157.444C163.579 0.291429 168.983 1.55429 173.658 3.78857C175.703 4.76 177.699 5.97429 179.646 7.43143C181.594 8.84 183.322 10.6129 184.832 12.75C186.39 14.8386 187.607 17.34 188.483 20.2543C189.408 23.1686 189.871 26.52 189.871 30.3086C189.871 35.5057 189.043 40.0714 187.388 44.0057C185.781 47.8914 183.444 51.1457 180.377 53.7686C174.144 59.1114 165.332 61.7829 153.939 61.7829ZM144.59 17.1943V44.4429H154.523C156.957 44.2971 159.148 43.7143 161.096 42.6943C163.043 41.6743 164.626 40.1686 165.843 38.1771C167.06 36.1371 167.669 33.5143 167.669 30.3086C167.669 27.2971 167.06 24.8929 165.843 23.0957C164.674 21.25 163.214 19.8414 161.461 18.87C159.757 17.9957 157.688 17.4371 155.253 17.1943H144.59Z" fill="white"/>
<path d="M247.275 40.0714C247.275 47.3571 243.672 51 236.466 51C235.395 51 234.129 51.1457 232.669 51.4371C231.257 51.68 229.845 52.2143 228.433 53.04C227.361 53.6714 226.388 54.4971 225.511 55.5171C224.635 56.5857 223.929 57.9214 223.393 59.5243C222.858 61.1271 222.59 63.0457 222.59 65.28V86.1171C222.59 88.9829 222.322 91.63 221.787 94.0586C221.251 96.4386 220.18 98.3571 218.573 99.8143C217.015 101.271 214.654 102 211.489 102C208.421 102 206.109 101.271 204.551 99.8143C202.993 98.3571 201.946 96.4143 201.41 93.9857C200.923 91.5571 200.68 88.9343 200.68 86.1171V45.3171C200.68 42.3543 200.923 39.6829 201.41 37.3029C201.946 34.8743 202.993 32.9314 204.551 31.4743C206.109 30.0171 208.421 29.2886 211.489 29.2886C214.702 29.2886 216.991 30.1629 218.354 31.9114C219.766 33.6114 220.618 35.8214 220.91 38.5414C221.251 41.2129 221.421 44.0543 221.421 47.0657H222.59C223.856 42.1114 225.901 37.91 228.725 34.4614C231.549 31.0129 234.665 29.2886 238.073 29.2886C241.822 29.2886 244.281 30.1386 245.449 31.8386C246.667 33.5386 247.275 36.2829 247.275 40.0714Z" fill="white"/>
<path d="M317.241 55.9543V60.4714C317.241 62.8514 316.633 64.9886 315.415 66.8829C314.247 68.7286 311.398 69.6514 306.87 69.6514H277.803V76.6457C277.803 79.3171 278.485 81.7943 279.848 84.0771C281.26 86.3114 283.597 87.4286 286.859 87.4286C289.44 87.4286 291.314 87.0157 292.483 86.19C293.651 85.3157 294.649 84.1986 295.477 82.8386C296.013 82.0129 296.67 81.2843 297.449 80.6529C298.277 79.9729 299.397 79.4143 300.809 78.9771C302.221 78.4914 304.192 78.2486 306.724 78.2486C309.354 78.2486 311.593 78.7586 313.443 79.7786C315.294 80.75 316.219 82.6686 316.219 85.5343C316.219 88.6914 315.221 91.3386 313.224 93.4757C311.228 95.5643 308.721 97.24 305.702 98.5029C302.683 99.7657 299.397 100.664 295.842 101.199C292.337 101.733 289.05 102 285.983 102C281.942 101.951 278.095 101.441 274.444 100.47C270.792 99.4986 267.578 97.9443 264.803 95.8071C261.979 93.67 259.74 90.8771 258.084 87.4286C256.429 83.98 255.601 79.7543 255.601 74.7514V57.7029C255.601 53.1371 256.161 49.2271 257.281 45.9729C258.401 42.7671 259.813 40.0957 261.517 37.9586C263.269 35.8214 265.241 34.1457 267.432 32.9314C269.623 31.7657 271.839 30.8914 274.078 30.3086C276.318 29.7257 278.436 29.3614 280.432 29.2157C282.477 29.07 284.23 28.9971 285.691 28.9971C290.608 28.9971 294.82 29.4343 298.325 30.3086C301.782 31.1829 304.679 32.3243 307.016 33.7329C309.354 35.1414 311.204 36.7686 312.567 38.6143C313.979 40.4114 315.001 42.3057 315.634 44.2971C316.316 46.24 316.754 48.2314 316.949 50.2714C317.144 52.3114 317.241 54.2057 317.241 55.9543ZM277.803 53.6229V58.7229H296.061C296.061 55.5657 295.891 52.9429 295.55 50.8543C295.258 48.7171 294.43 47.1143 293.067 46.0457C291.752 44.9771 289.537 44.4429 286.421 44.4429C282.867 44.4429 280.53 45.4143 279.41 47.3571C278.339 49.2514 277.803 51.34 277.803 53.6229Z" fill="white"/>
<path d="M389.982 45.7543V85.5343C389.982 88.5457 389.763 91.3143 389.325 93.84C388.887 96.3171 387.889 98.3086 386.331 99.8143C384.821 101.271 382.387 102 379.027 102C375.863 102 373.477 101.393 371.87 100.179C370.263 98.9157 369.168 97.3614 368.584 95.5157C368.048 93.6214 367.78 91.7029 367.78 89.76C366.806 92.9657 365.054 95.8071 362.522 98.2843C359.99 100.761 356.484 102 352.005 102C349.327 102 346.649 101.563 343.971 100.689C341.293 99.8143 338.883 98.3571 336.741 96.3171C334.599 94.2771 332.846 91.63 331.483 88.3757C330.168 85.0729 329.511 81.0171 329.511 76.2086V55.08C329.511 50.2229 330.168 46.1671 331.483 42.9129C332.846 39.61 334.599 36.9386 336.741 34.8986C338.883 32.9071 341.293 31.4743 343.971 30.6C346.649 29.7257 349.327 29.2886 352.005 29.2886C356.484 29.2886 359.99 30.5029 362.522 32.9314C365.054 35.36 366.806 38.2257 367.78 41.5286C367.78 37.06 368.876 33.8786 371.067 31.9843C373.258 30.09 375.911 29.1429 379.027 29.1429C382.192 29.1429 384.553 29.8957 386.112 31.4014C387.67 32.9071 388.692 34.9229 389.179 37.4486C389.715 39.9743 389.982 42.7429 389.982 45.7543ZM352.005 56.6829V74.3143C352.005 77.1314 352.346 79.6086 353.027 81.7457C353.709 83.8829 355.511 84.9514 358.432 84.9514C362.035 84.9514 364.518 83.2029 365.881 79.7057C366.563 77.9571 367.025 75.7471 367.269 73.0757C367.561 70.3557 367.731 67.1257 367.78 63.3857C367.78 61.1029 367.512 58.65 366.977 56.0271C366.441 53.3557 365.492 51.0729 364.129 49.1786C362.765 47.2843 360.866 46.3371 358.432 46.3371C355.511 46.3371 353.709 47.3814 353.027 49.47C352.346 51.5586 352.005 53.9629 352.005 56.6829Z" fill="white"/>
<path d="M464.33 16.6114V85.5343C464.33 88.5457 464.111 91.3143 463.673 93.84C463.235 96.3171 462.237 98.3086 460.679 99.8143C459.169 101.271 456.735 102 453.375 102C450.21 102 447.825 101.393 446.218 100.179C444.611 98.9157 443.516 97.3614 442.931 95.5157C442.396 93.6214 442.128 91.7029 442.128 89.76C441.154 92.9657 439.402 95.8071 436.87 98.2843C434.338 100.761 430.832 102 426.353 102C423.675 102 420.997 101.563 418.319 100.689C415.641 99.8143 413.231 98.3571 411.089 96.3171C408.947 94.2771 407.194 91.63 405.831 88.3757C404.516 85.0729 403.859 81.0171 403.859 76.2086V55.08C403.859 50.2229 404.516 46.1671 405.831 42.9129C407.194 39.61 408.947 36.9386 411.089 34.8986C413.231 32.9071 415.641 31.4743 418.319 30.6C420.997 29.7257 423.675 29.2886 426.353 29.2886C430.832 29.2886 434.338 30.5029 436.87 32.9314C439.402 35.36 441.154 38.2257 442.128 41.5286V16.6114C442.128 13.5514 442.372 10.7829 442.858 8.30571C443.394 5.78 444.465 3.76429 446.072 2.25857C447.679 0.752857 450.113 0 453.375 0C456.54 0 458.901 0.752857 460.459 2.25857C462.018 3.76429 463.04 5.78 463.527 8.30571C464.062 10.8314 464.33 13.6 464.33 16.6114ZM426.353 56.6829V74.3143C426.353 77.1314 426.694 79.6086 427.375 81.7457C428.057 83.8829 429.859 84.9514 432.78 84.9514C436.383 84.9514 438.866 83.2029 440.229 79.7057C440.911 77.9571 441.373 75.7471 441.617 73.0757C441.909 70.3557 442.079 67.1257 442.128 63.3857C442.128 61.1029 441.86 58.65 441.325 56.0271C440.789 53.3557 439.84 51.0729 438.476 49.1786C437.113 47.2843 435.214 46.3371 432.78 46.3371C429.859 46.3371 428.057 47.3814 427.375 49.47C426.694 51.5586 426.353 53.9629 426.353 56.6829Z" fill="white"/>
<path d="M531.375 102C528.21 102 525.824 101.247 524.218 99.7414C522.611 98.2357 521.54 96.2443 521.004 93.7671C520.517 91.2414 520.274 88.4971 520.274 85.5343V56.6829C520.274 53.9143 519.909 51.4857 519.178 49.3971C518.448 47.26 516.671 46.1914 513.847 46.1914C511.899 46.1914 510.317 46.8471 509.1 48.1586C507.882 49.4214 506.933 51.1943 506.251 53.4771C505.521 55.7114 505.01 58.3829 504.718 61.4914C504.474 64.5514 504.353 67.8543 504.353 71.4V85.5343C504.353 88.4971 504.085 91.2414 503.549 93.7671C503.062 96.2443 502.015 98.2357 500.409 99.7414C498.851 101.247 496.465 102 493.251 102C490.038 102 487.628 101.247 486.021 99.7414C484.463 98.2357 483.416 96.2443 482.881 93.7671C482.394 91.2414 482.15 88.4971 482.15 85.5343V45.6086C482.15 42.5486 482.369 39.78 482.808 37.3029C483.295 34.8257 484.317 32.8586 485.875 31.4014C487.482 29.8957 489.941 29.1429 493.251 29.1429C496.465 29.1429 498.851 29.7743 500.409 31.0371C502.015 32.2514 503.062 33.8057 503.549 35.7C504.085 37.5457 504.353 39.44 504.353 41.3829C505.326 38.2257 507.323 35.4086 510.341 32.9314C513.36 30.4057 517.06 29.1429 521.442 29.1429C524.656 29.1429 527.772 29.92 530.791 31.4743C533.809 33.0286 536.39 35.5543 538.532 39.0514C539.993 35.7486 542.671 33.2714 546.566 31.62C550.51 29.9686 554.453 29.1429 558.397 29.1429C561.075 29.1429 563.753 29.58 566.431 30.4543C569.109 31.3286 571.519 32.7857 573.661 34.8257C575.803 36.8657 577.532 39.5371 578.847 42.84C580.21 46.0943 580.891 50.1257 580.891 54.9343V85.5343C580.891 88.4971 580.599 91.2414 580.015 93.7671C579.479 96.2443 578.408 98.2357 576.802 99.7414C575.195 101.247 572.809 102 569.644 102C566.431 102 564.021 101.247 562.414 99.7414C560.807 98.2357 559.736 96.2443 559.201 93.7671C558.665 91.2414 558.397 88.4971 558.397 85.5343V56.6829C558.397 53.8657 558.008 51.4129 557.229 49.3243C556.45 47.2357 554.648 46.1914 551.824 46.1914C549.633 46.1914 547.88 47.1143 546.566 48.96C545.3 50.7571 544.375 53.1129 543.791 56.0271C543.206 58.9414 542.817 62.0743 542.622 65.4257V85.5343C542.622 88.4971 542.354 91.2414 541.819 93.7671C541.283 96.2443 540.212 98.2357 538.605 99.7414C537.047 101.247 534.637 102 531.375 102Z" fill="white"/>
<path d="M623.105 11.0743C623.105 14.8143 622.131 17.6071 620.183 19.4529C618.236 21.25 615.509 22.1486 612.004 22.1486C608.498 22.1486 605.771 21.25 603.824 19.4529C601.876 17.6071 600.903 14.8143 600.903 11.0743C600.903 7.18857 601.876 4.37143 603.824 2.62286C605.771 0.874286 608.498 0 612.004 0C615.753 0 618.528 0.874286 620.329 2.62286C622.18 4.37143 623.105 7.18857 623.105 11.0743ZM600.757 85.68V45.4629C600.757 42.5486 601 39.8529 601.487 37.3757C602.022 34.8986 603.069 32.9071 604.627 31.4014C606.234 29.8957 608.644 29.1429 611.858 29.1429C615.071 29.1429 617.457 29.8957 619.015 31.4014C620.622 32.9071 621.668 34.8986 622.155 37.3757C622.691 39.8529 622.959 42.5486 622.959 45.4629V85.68C622.959 88.6429 622.691 91.3629 622.155 93.84C621.668 96.3171 620.622 98.3086 619.015 99.8143C617.457 101.271 615.071 102 611.858 102C608.644 102 606.234 101.271 604.627 99.8143C603.069 98.3086 602.022 96.3171 601.487 93.84C601 91.3629 600.757 88.6429 600.757 85.68Z" fill="white"/>
<path d="M705.778 55.08V85.3886C705.778 88.3514 705.486 91.0957 704.902 93.6214C704.366 96.1471 703.271 98.1871 701.616 99.7414C700.009 101.247 697.599 102 694.385 102C691.22 102 688.835 101.247 687.228 99.7414C685.621 98.2357 684.55 96.22 684.015 93.6943C683.528 91.1686 683.284 88.4 683.284 85.3886V56.9743C683.284 54.06 682.919 51.5343 682.189 49.3971C681.507 47.26 679.73 46.1914 676.857 46.1914C674.861 46.1914 673.254 46.8471 672.037 48.1586C670.82 49.47 669.87 51.2671 669.189 53.55C668.458 55.8329 667.971 58.5286 667.728 61.6371C667.485 64.6971 667.363 68 667.363 71.5457V85.3886C667.363 88.3514 667.071 91.0957 666.487 93.6214C665.951 96.1471 664.855 98.1871 663.2 99.7414C661.593 101.247 659.183 102 655.97 102C652.805 102 650.419 101.247 648.812 99.7414C647.206 98.2357 646.135 96.22 645.599 93.6943C645.112 91.1686 644.869 88.4 644.869 85.3886V45.6086C644.869 42.5486 645.063 39.78 645.453 37.3029C645.891 34.8257 646.889 32.8586 648.447 31.4014C650.054 29.8957 652.561 29.1429 655.97 29.1429C659.135 29.1429 661.52 29.7743 663.127 31.0371C664.782 32.2514 665.902 33.8057 666.487 35.7C667.071 37.5457 667.363 39.44 667.363 41.3829C668.239 38.1771 670.016 35.3357 672.694 32.8586C675.372 30.3814 678.902 29.1429 683.284 29.1429C685.962 29.1429 688.64 29.58 691.318 30.4543C693.996 31.3286 696.406 32.7857 698.548 34.8257C700.69 36.8657 702.419 39.5371 703.734 42.84C705.097 46.1429 705.778 50.2229 705.778 55.08Z" fill="white"/>
</svg>
