<svg width="721" height="105" viewBox="0 0 721 105" fill="none" xmlns="http://www.w3.org/2000/svg">
<path fill-rule="evenodd" clip-rule="evenodd" d="M95.0019 17.6715L74.4683 26.1425L26.9748 78.7704L20.6487 100.063L3.46484 84.5554L23.9984 76.0844L71.4919 23.4565L77.818 2.16406L95.0019 17.6715Z" fill="black"/>
<path d="M24.1145 12.0573C24.1145 18.7163 18.7163 24.1145 12.0573 24.1145C5.39822 24.1145 0 18.7163 0 12.0573C0 5.39822 5.39822 0 12.0573 0C18.7163 0 24.1145 5.39822 24.1145 12.0573Z" fill="#E04F16"/>
<path d="M59.8974 12.0573C59.8974 18.7163 54.4991 24.1145 47.8401 24.1145C41.1811 24.1145 35.7828 18.7163 35.7828 12.0573C35.7828 5.39822 41.1811 0 47.8401 0C54.4991 0 59.8974 5.39822 59.8974 12.0573Z" fill="#E04F16"/>
<path d="M96.4581 12.0573C96.4581 18.7163 91.0599 24.1145 84.4008 24.1145C77.7418 24.1145 72.3436 18.7163 72.3436 12.0573C72.3436 5.39822 77.7418 0 84.4008 0C91.0599 0 96.4581 5.39822 96.4581 12.0573Z" fill="#E04F16"/>
<path d="M59.8974 51.7295C59.8974 58.3886 54.4991 63.7868 47.8401 63.7868C41.1811 63.7868 35.7828 58.3886 35.7828 51.7295C35.7828 45.0705 41.1811 39.6723 47.8401 39.6723C54.4991 39.6723 59.8974 45.0705 59.8974 51.7295Z" fill="#E04F16"/>
<path d="M96.4581 51.7295C96.4581 58.3886 91.0599 63.7868 84.4008 63.7868C77.7418 63.7868 72.3436 58.3886 72.3436 51.7295C72.3436 45.0705 77.7418 39.6723 84.4008 39.6723C91.0599 39.6723 96.4581 45.0705 96.4581 51.7295Z" fill="#E04F16"/>
<path d="M24.1145 92.1797C24.1145 98.8387 18.7163 104.237 12.0573 104.237C5.39822 104.237 0 98.8387 0 92.1797C0 85.5207 5.39822 80.1224 12.0573 80.1224C18.7163 80.1224 24.1145 85.5207 24.1145 92.1797Z" fill="#E04F16"/>
<path d="M96.4581 92.1797C96.4581 98.8387 91.0599 104.237 84.4008 104.237C77.7418 104.237 72.3436 98.8387 72.3436 92.1797C72.3436 85.5207 77.7418 80.1224 84.4008 80.1224C91.0599 80.1224 96.4581 85.5207 96.4581 92.1797Z" fill="#E04F16"/>
<path d="M156.627 63.1127H147.095V87.1813C147.095 90.3508 146.897 93.2232 146.5 95.7984C146.103 98.3736 145.085 100.404 143.447 101.89C141.858 103.376 139.252 104.118 135.628 104.118C132.103 104.118 129.546 103.376 127.958 101.89C126.369 100.355 125.376 98.3241 124.979 95.7984C124.632 93.2232 124.458 90.3508 124.458 87.1813V17.0556C124.458 13.886 124.632 11.0384 124.979 8.51269C125.376 5.93746 126.369 3.90698 127.958 2.42127C129.546 0.886027 132.103 0.118408 135.628 0.118408H160.201C166.456 0.415551 171.967 1.70317 176.733 3.98127C178.818 4.97174 180.853 6.20984 182.839 7.69555C184.825 9.13174 186.587 10.9394 188.126 13.1184C189.714 15.2479 190.956 17.7984 191.849 20.7698C192.792 23.7413 193.264 27.1584 193.264 31.0213C193.264 36.3203 192.42 40.9756 190.732 44.987C189.094 48.9489 186.711 52.267 183.583 54.9413C177.229 60.3889 168.244 63.1127 156.627 63.1127ZM147.095 17.6498V45.4327H157.223C159.705 45.2841 161.939 44.6898 163.925 43.6498C165.91 42.6098 167.524 41.0746 168.765 39.0441C170.006 36.9641 170.627 34.2898 170.627 31.0213C170.627 27.9508 170.006 25.4994 168.765 23.667C167.573 21.7851 166.084 20.3489 164.297 19.3584C162.559 18.467 160.45 17.8975 157.967 17.6498H147.095Z" fill="black"/>
<path d="M251.794 40.9756C251.794 48.4041 248.12 52.1184 240.773 52.1184C239.681 52.1184 238.39 52.267 236.901 52.5641C235.461 52.8117 234.021 53.3565 232.582 54.1984C231.49 54.8422 230.497 55.6841 229.603 56.7241C228.709 57.8136 227.99 59.1756 227.444 60.8098C226.898 62.4441 226.624 64.4003 226.624 66.6784V87.9241C226.624 90.846 226.351 93.5451 225.805 96.0213C225.259 98.4479 224.167 100.404 222.529 101.89C220.94 103.376 218.533 104.118 215.306 104.118C212.178 104.118 209.82 103.376 208.232 101.89C206.643 100.404 205.576 98.4232 205.03 95.947C204.533 93.4708 204.285 90.7965 204.285 87.9241V46.3241C204.285 43.3032 204.533 40.5794 205.03 38.1527C205.576 35.6765 206.643 33.6956 208.232 32.2098C209.82 30.7241 212.178 29.9813 215.306 29.9813C218.582 29.9813 220.915 30.8727 222.305 32.6556C223.745 34.3889 224.614 36.6422 224.912 39.4156C225.259 42.1394 225.433 45.0365 225.433 48.107H226.624C227.915 43.0555 230 38.7717 232.88 35.2556C235.759 31.7394 238.936 29.9813 242.411 29.9813C246.234 29.9813 248.741 30.8479 249.932 32.5813C251.173 34.3146 251.794 37.1127 251.794 40.9756Z" fill="black"/>
<path d="M323.132 57.1698V61.7756C323.132 64.2022 322.511 66.3813 321.27 68.3127C320.078 70.1946 317.174 71.1356 312.557 71.1356H282.92V78.267C282.92 80.9908 283.615 83.5165 285.005 85.8441C286.445 88.1222 288.828 89.2613 292.154 89.2613C294.785 89.2613 296.696 88.8403 297.888 87.9984C299.079 87.107 300.097 85.9679 300.941 84.5813C301.487 83.7394 302.157 82.9965 302.951 82.3527C303.795 81.6594 304.937 81.0898 306.377 80.6441C307.817 80.1489 309.827 79.9013 312.409 79.9013C315.089 79.9013 317.373 80.4213 319.259 81.4613C321.146 82.4517 322.089 84.4079 322.089 87.3298C322.089 90.5489 321.071 93.2479 319.036 95.427C317.001 97.5565 314.444 99.2651 311.366 100.553C308.288 101.84 304.937 102.757 301.313 103.301C297.739 103.846 294.388 104.118 291.26 104.118C287.14 104.069 283.218 103.549 279.495 102.558C275.772 101.568 272.495 99.9832 269.665 97.8041C266.786 95.6251 264.503 92.7775 262.815 89.2613C261.127 85.7451 260.283 81.4365 260.283 76.3355V58.9527C260.283 54.2975 260.854 50.3108 261.995 46.9927C263.137 43.7241 264.577 41.0003 266.314 38.8213C268.102 36.6422 270.112 34.9336 272.346 33.6956C274.58 32.507 276.839 31.6156 279.123 31.0213C281.406 30.427 283.566 30.0556 285.601 29.907C287.686 29.7584 289.473 29.6841 290.963 29.6841C295.977 29.6841 300.271 30.1298 303.845 31.0213C307.37 31.9127 310.324 33.0765 312.706 34.5127C315.089 35.9489 316.976 37.6079 318.366 39.4898C319.805 41.3222 320.848 43.2536 321.493 45.2841C322.188 47.2651 322.635 49.2956 322.834 51.3756C323.032 53.4556 323.132 55.387 323.132 57.1698ZM282.92 54.7927V59.9927H301.537C301.537 56.7736 301.363 54.0994 301.015 51.9698C300.717 49.7908 299.874 48.1565 298.484 47.067C297.143 45.9775 294.884 45.4327 291.707 45.4327C288.083 45.4327 285.7 46.4232 284.559 48.4041C283.466 50.3356 282.92 52.4651 282.92 54.7927Z" fill="black"/>
<path d="M397.299 46.7698V87.3298C397.299 90.4003 397.076 93.2232 396.629 95.7984C396.182 98.3241 395.164 100.355 393.576 101.89C392.037 103.376 389.555 104.118 386.129 104.118C382.902 104.118 380.47 103.499 378.832 102.261C377.193 100.974 376.076 99.3889 375.481 97.507C374.935 95.5756 374.662 93.6194 374.662 91.6384C373.669 94.907 371.882 97.8041 369.3 100.33C366.719 102.856 363.144 104.118 358.577 104.118C355.847 104.118 353.116 103.673 350.386 102.781C347.655 101.89 345.198 100.404 343.014 98.3241C340.829 96.2441 339.042 93.5451 337.652 90.227C336.312 86.8594 335.642 82.7241 335.642 77.8213V56.2784C335.642 51.326 336.312 47.1908 337.652 43.8727C339.042 40.5051 340.829 37.7813 343.014 35.7013C345.198 33.6708 347.655 32.2098 350.386 31.3184C353.116 30.427 355.847 29.9813 358.577 29.9813C363.144 29.9813 366.719 31.2194 369.3 33.6956C371.882 36.1717 373.669 39.0936 374.662 42.4613C374.662 37.9051 375.779 34.6613 378.013 32.7298C380.246 30.7984 382.952 29.8327 386.129 29.8327C389.356 29.8327 391.764 30.6003 393.352 32.1356C394.941 33.6708 395.983 35.726 396.48 38.3013C397.026 40.8765 397.299 43.6994 397.299 46.7698ZM358.577 57.9127V75.8898C358.577 78.7622 358.925 81.2879 359.62 83.467C360.315 85.646 362.151 86.7355 365.13 86.7355C368.804 86.7355 371.335 84.9527 372.725 81.387C373.42 79.6041 373.892 77.3508 374.14 74.627C374.438 71.8536 374.612 68.5603 374.662 64.747C374.662 62.4194 374.389 59.9184 373.842 57.2441C373.296 54.5203 372.328 52.1927 370.938 50.2613C369.548 48.3298 367.612 47.3641 365.13 47.3641C362.151 47.3641 360.315 48.4289 359.62 50.5584C358.925 52.6879 358.577 55.1394 358.577 57.9127Z" fill="black"/>
<path d="M473.105 17.0556V87.3298C473.105 90.4003 472.881 93.2232 472.435 95.7984C471.988 98.3241 470.97 100.355 469.382 101.89C467.843 103.376 465.36 104.118 461.935 104.118C458.708 104.118 456.276 103.499 454.637 102.261C452.999 100.974 451.882 99.3889 451.286 97.507C450.74 95.5756 450.467 93.6194 450.467 91.6384C449.474 94.907 447.687 97.8041 445.106 100.33C442.524 102.856 438.95 104.118 434.383 104.118C431.652 104.118 428.922 103.673 426.192 102.781C423.461 101.89 421.004 100.404 418.82 98.3241C416.635 96.2441 414.848 93.5451 413.458 90.227C412.118 86.8594 411.447 82.7241 411.447 77.8213V56.2784C411.447 51.326 412.118 47.1908 413.458 43.8727C414.848 40.5051 416.635 37.7813 418.82 35.7013C421.004 33.6708 423.461 32.2098 426.192 31.3184C428.922 30.427 431.652 29.9813 434.383 29.9813C438.95 29.9813 442.524 31.2194 445.106 33.6956C447.687 36.1717 449.474 39.0936 450.467 42.4613V17.0556C450.467 13.9356 450.716 11.1127 451.212 8.58698C451.758 6.01174 452.85 3.9565 454.488 2.42127C456.127 0.886027 458.609 0.118408 461.935 0.118408C465.162 0.118408 467.57 0.886027 469.158 2.42127C470.747 3.9565 471.789 6.01174 472.286 8.58698C472.832 11.1622 473.105 13.9851 473.105 17.0556ZM434.383 57.9127V75.8898C434.383 78.7622 434.73 81.2879 435.425 83.467C436.12 85.646 437.957 86.7355 440.936 86.7355C444.609 86.7355 447.141 84.9527 448.531 81.387C449.226 79.6041 449.698 77.3508 449.946 74.627C450.244 71.8536 450.418 68.5603 450.467 64.747C450.467 62.4194 450.194 59.9184 449.648 57.2441C449.102 54.5203 448.134 52.1927 446.744 50.2613C445.354 48.3298 443.418 47.3641 440.936 47.3641C437.957 47.3641 436.12 48.4289 435.425 50.5584C434.73 52.6879 434.383 55.1394 434.383 57.9127Z" fill="black"/>
<path d="M541.464 104.118C538.237 104.118 535.805 103.351 534.166 101.816C532.528 100.28 531.436 98.2498 530.89 95.7241C530.393 93.1489 530.145 90.3508 530.145 87.3298V57.9127C530.145 55.0898 529.773 52.6136 529.028 50.4841C528.284 48.3051 526.472 47.2156 523.592 47.2156C521.607 47.2156 519.993 47.8841 518.752 49.2213C517.511 50.5089 516.543 52.3165 515.848 54.6441C515.103 56.9222 514.582 59.646 514.284 62.8156C514.036 65.9356 513.912 69.3032 513.912 72.9184V87.3298C513.912 90.3508 513.639 93.1489 513.093 95.7241C512.596 98.2498 511.529 100.28 509.891 101.816C508.302 103.351 505.87 104.118 502.593 104.118C499.317 104.118 496.859 103.351 495.221 101.816C493.632 100.28 492.565 98.2498 492.019 95.7241C491.523 93.1489 491.274 90.3508 491.274 87.3298V46.6213C491.274 43.5013 491.498 40.6784 491.944 38.1527C492.441 35.627 493.483 33.6213 495.072 32.1356C496.71 30.6003 499.217 29.8327 502.593 29.8327C505.87 29.8327 508.302 30.4765 509.891 31.7641C511.529 33.0022 512.596 34.587 513.093 36.5184C513.639 38.4003 513.912 40.3317 513.912 42.3127C514.905 39.0936 516.94 36.2213 520.018 33.6956C523.096 31.1203 526.869 29.8327 531.337 29.8327C534.613 29.8327 537.79 30.6251 540.868 32.2098C543.946 33.7946 546.577 36.3698 548.762 39.9356C550.251 36.5679 552.981 34.0422 556.953 32.3584C560.974 30.6746 564.995 29.8327 569.016 29.8327C571.747 29.8327 574.477 30.2784 577.207 31.1698C579.938 32.0613 582.395 33.547 584.579 35.627C586.764 37.707 588.526 40.4308 589.866 43.7984C591.256 47.1165 591.951 51.227 591.951 56.1298V87.3298C591.951 90.3508 591.654 93.1489 591.058 95.7241C590.512 98.2498 589.42 100.28 587.781 101.816C586.143 103.351 583.711 104.118 580.484 104.118C577.207 104.118 574.75 103.351 573.112 101.816C571.473 100.28 570.381 98.2498 569.835 95.7241C569.289 93.1489 569.016 90.3508 569.016 87.3298V57.9127C569.016 55.0403 568.619 52.5394 567.825 50.4098C567.03 48.2803 565.194 47.2156 562.314 47.2156C560.08 47.2156 558.293 48.1565 556.953 50.0384C555.662 51.8708 554.719 54.2727 554.123 57.2441C553.527 60.2156 553.13 63.4098 552.932 66.827V87.3298C552.932 90.3508 552.659 93.1489 552.112 95.7241C551.566 98.2498 550.474 100.28 548.836 101.816C547.247 103.351 544.79 104.118 541.464 104.118Z" fill="black"/>
<path d="M634.992 11.4098C634.992 15.2232 634 18.0708 632.014 19.9527C630.028 21.7851 627.248 22.7013 623.674 22.7013C620.099 22.7013 617.319 21.7851 615.334 19.9527C613.348 18.0708 612.355 15.2232 612.355 11.4098C612.355 7.44793 613.348 4.57555 615.334 2.79269C617.319 1.00984 620.099 0.118408 623.674 0.118408C627.496 0.118408 630.326 1.00984 632.163 2.79269C634.049 4.57555 634.992 7.44793 634.992 11.4098ZM612.206 87.4784V46.4727C612.206 43.5013 612.454 40.7527 612.951 38.227C613.497 35.7013 614.564 33.6708 616.153 32.1356C617.791 30.6003 620.248 29.8327 623.525 29.8327C626.801 29.8327 629.234 30.6003 630.822 32.1356C632.461 33.6708 633.528 35.7013 634.024 38.227C634.57 40.7527 634.844 43.5013 634.844 46.4727V87.4784C634.844 90.4994 634.57 93.2727 634.024 95.7984C633.528 98.3241 632.461 100.355 630.822 101.89C629.234 103.376 626.801 104.118 623.525 104.118C620.248 104.118 617.791 103.376 616.153 101.89C614.564 100.355 613.497 98.3241 612.951 95.7984C612.454 93.2727 612.206 90.4994 612.206 87.4784Z" fill="black"/>
<path d="M719.287 56.2784V87.1813C719.287 90.2022 718.989 93.0003 718.394 95.5756C717.848 98.1508 716.731 100.231 715.043 101.816C713.404 103.351 710.947 104.118 707.671 104.118C704.444 104.118 702.011 103.351 700.373 101.816C698.735 100.28 697.643 98.2251 697.097 95.6498C696.6 93.0746 696.352 90.2517 696.352 87.1813V58.2098C696.352 55.2384 695.98 52.6632 695.235 50.4841C694.54 48.3051 692.728 47.2156 689.799 47.2156C687.764 47.2156 686.125 47.8841 684.884 49.2213C683.643 50.5584 682.675 52.3908 681.98 54.7184C681.235 57.046 680.739 59.7946 680.491 62.9641C680.243 66.0841 680.118 69.4517 680.118 73.067V87.1813C680.118 90.2022 679.821 93.0003 679.225 95.5756C678.679 98.1508 677.562 100.231 675.874 101.816C674.236 103.351 671.778 104.118 668.502 104.118C665.275 104.118 662.842 103.351 661.204 101.816C659.566 100.28 658.474 98.2251 657.928 95.6498C657.431 93.0746 657.183 90.2517 657.183 87.1813V46.6213C657.183 43.5013 657.382 40.6784 657.779 38.1527C658.226 35.627 659.243 33.6213 660.832 32.1356C662.47 30.6003 665.027 29.8327 668.502 29.8327C671.729 29.8327 674.161 30.4765 675.799 31.7641C677.487 33.0022 678.629 34.587 679.225 36.5184C679.821 38.4003 680.118 40.3317 680.118 42.3127C681.012 39.0441 682.824 36.147 685.554 33.6213C688.285 31.0956 691.884 29.8327 696.352 29.8327C699.082 29.8327 701.813 30.2784 704.543 31.1698C707.273 32.0613 709.731 33.547 711.915 35.627C714.099 37.707 715.862 40.4308 717.202 43.7984C718.592 47.166 719.287 51.326 719.287 56.2784Z" fill="black"/>
</svg>
