<svg width="195" height="195" viewBox="0 0 195 195" fill="none" xmlns="http://www.w3.org/2000/svg">
<g clip-path="url(#clip0_4849_400760)">
<path d="M0 23.6133V47.2266H23.6133H47.2266V23.6133V0H23.6133H0V23.6133ZM39.9902 23.4229V39.9902H23.4229H6.85547V23.4229V6.85547H23.4229H39.9902V23.4229Z" fill="white"/>
<path d="M13.3301 23.6152V33.8984H23.6133H33.8965V23.6152V13.332H23.6133H13.3301V23.6152Z" fill="white"/>
<path d="M67.0312 10.0928V20.1855H70.459H73.8867V26.8506V33.5156H70.6494H67.4121V30.0879V26.6602H63.9844H60.5566V16.5674V6.47461H57.1289H53.7012V26.8506V47.2266H57.1289H60.5566V43.7988V40.3711H63.7939H67.0312V47.2266V54.082H80.5518H94.0723V57.1289V60.1758H90.6445H87.2168V63.7939V67.4121H93.8818H100.547V70.6494V73.8867H97.3096H94.0723V77.124V80.3613H90.6445H87.2168V83.7891V87.2168H80.7422H74.2676V83.7891V80.3613H67.2217H60.1758V87.2168V94.0723H47.0361H33.8965V84.1699V74.2676H40.5615H47.2266V70.6494V67.0312H40.3711H33.5156V70.459V73.8867H30.0879H26.6602V83.9795V94.0723H23.4229H20.1855V90.6445V87.2168H16.9482H13.7109V83.9795V80.7422H16.9482H20.1855V74.0771V67.4121H23.6133H27.041V63.7939V60.1758H23.6133H20.1855V56.9385V53.7012H16.7578H13.3301V63.7939V73.8867H10.0928H6.85547V70.459V67.0312H3.42773H0V73.8867V80.7422H3.2373H6.47461V83.9795V87.2168H3.2373H0V90.835V94.4531H3.42773H6.85547V91.0254V87.5977H10.0928H13.3301V94.0723V100.547H6.66504H0V107.593V114.639H3.2373H6.47461V117.686V120.732H3.2373H0V124.351V127.969H6.66504H13.3301V131.206V134.443H6.66504H0V137.871V141.299H13.5205H27.041V137.871V134.443H23.6133H20.1855V131.016V127.588H16.9482H13.7109V124.351V121.113H20.1855H26.6602V124.541V127.969H30.0879H33.5156V134.634V141.299H40.3711H47.2266V138.062V134.824H50.4639H53.7012V148.154V161.484H56.9385H60.1758V168.149V174.814H56.9385H53.7012V178.242V181.67H60.3662H67.0312V188.335V195H70.6494H74.2676V191.763V188.525H80.7422H87.2168V191.763V195H94.0723H100.928V188.335V181.67H104.355H107.783V171.577V161.484H117.686H127.588V168.149V174.814H124.351H121.113V171.387V167.959H117.686H114.258V174.814V181.67H120.923H127.588V188.335V195H134.443H141.299V188.335V181.67H144.727H148.154V175.005V168.34H154.629H161.104V174.814V181.289H157.866H154.629V188.145V195H158.057H161.484V188.335V181.67H164.722H167.959V185.098V188.525H171.577H175.195V185.098V181.67H185.098H195V178.242V174.814H191.763H188.525V171.577V168.34H191.763H195V164.722V161.104H188.145H181.289V167.959V174.814H178.052H174.814V178.052V181.289H171.577H168.34V174.814V168.34H171.768H175.195V161.484V154.629H171.768H168.34V147.964V141.299H171.768H175.195V134.634V127.969H178.433H181.67V124.351V120.732H174.814H167.959V127.588V134.443H154.629H141.299V131.206V127.969H148.154H155.01V124.541V121.113H158.247H161.484V117.686V114.258H158.247H155.01V111.021V107.783H158.247H161.484V104.165V100.547H158.057H154.629V103.975V107.402H151.392H148.154V100.928V94.4531H154.819H161.484V87.4072V80.3613H158.247H155.01V77.124V73.8867H151.392H147.773V77.124V80.3613H144.536H141.299V77.124V73.8867H138.062H134.824V63.7939V53.7012H124.541H114.258V56.9385V60.1758H110.83H107.402V63.6035V67.0312H104.165H100.928V60.5566V54.082H104.355H107.783V50.6543V47.2266H111.211H114.639V40.5615V33.8965H121.304H127.969V30.2783V26.6602H124.541H121.113V23.4229V20.1855H124.541H127.969V13.5205V6.85547H131.396H134.824V3.42773V0H127.778H120.732V3.2373V6.47461H117.495H114.258V13.1396V19.8047H111.021H107.783V16.5674V13.3301H104.355H100.928V10.0928V6.85547H104.355H107.783V3.42773V0H100.928H94.0723V3.2373V6.47461H90.835H87.5977V3.2373V0H77.3145H67.0312V10.0928ZM87.2168 10.2832V13.7109H93.8818H100.547V16.7578V19.8047H97.3096H94.0723V33.3252V46.8457H90.835H87.5977V40.1807V33.5156H84.1699H80.7422V30.2783V27.041H84.1699H87.5977V23.4229V19.8047H80.9326H74.2676V13.3301V6.85547H80.7422H87.2168V10.2832ZM107.402 23.6133V27.041H110.83H114.258V30.2783V33.5156H110.83H107.402V40.1807V46.8457H104.165H100.928V33.5156V20.1855H104.165H107.402V23.6133ZM80.3613 43.6084V46.8457H77.3145H74.2676V43.6084V40.3711H77.3145H80.3613V43.6084ZM127.588 67.4121V74.2676H131.016H134.443V77.3145V80.3613H127.588H120.732V83.9795V87.5977H124.16H127.588V90.835V94.0723H124.16H120.732V97.5V100.928H124.16H127.588V107.593V114.258H124.351H121.113V110.83V107.402H117.876H114.639V100.737V94.0723H111.021H107.402V97.3096V100.547H104.165H100.928V90.6445V80.7422H104.165H107.402V84.1699V87.5977H111.021H114.639V83.9795V80.3613H111.211H107.783V73.8867V67.4121H111.021H114.258V70.8398V74.2676H117.686H121.113V67.4121V60.5566H124.351H127.588V67.4121ZM94.0723 94.0723V100.547H87.4072H80.7422V97.5V94.4531H84.1699H87.5977V91.0254V87.5977H90.835H94.0723V94.0723ZM147.773 90.835V94.0723H144.346H140.918V100.928V107.783H144.346H147.773V111.021V114.258H144.346H140.918V117.495V120.732H137.871H134.824V104.165V87.5977H141.299H147.773V90.835ZM67.0312 97.5V100.547H63.7939H60.5566V97.5V94.4531H63.7939H67.0312V97.5ZM46.8457 104.165V107.402H36.9434H27.041V104.165V100.928H36.9434H46.8457V104.165ZM60.1758 110.83V120.732H57.1289H54.082V110.83V100.928H57.1289H60.1758V110.83ZM100.547 104.165V107.402H97.5H94.4531V104.165V100.928H97.5H100.547V104.165ZM26.6602 111.021V114.258H20.1855H13.7109V111.021V107.783H20.1855H26.6602V111.021ZM94.0723 111.211V114.639H97.5H100.928V111.211V107.783H104.165H107.402V111.211V114.639H114.067H120.732V117.686V120.732H117.495H114.258V124.351V127.969H117.495H120.732V134.443V140.918H117.686H114.639V137.681V134.443H107.593H100.547V137.681V140.918H97.3096H94.0723V144.346V147.773H90.835H87.5977V141.108V134.443H84.1699H80.7422V131.206V127.969H87.5977H94.4531V124.351V120.732H87.4072H80.3613V124.16V127.588H70.459H60.5566V124.351V121.113H67.4121H74.2676V117.876V114.639H80.9326H87.5977V111.211V107.783H90.835H94.0723V111.211ZM46.8457 117.686V120.732H40.3711H33.8965V117.686V114.639H40.3711H46.8457V117.686ZM127.588 124.351V127.588H124.351H121.113V124.351V121.113H124.351H127.588V124.351ZM46.8457 131.206V134.443H43.6084H40.3711V131.206V127.969H43.6084H46.8457V131.206ZM67.0312 141.299V147.773H63.7939H60.5566V141.299V134.824H63.7939H67.0312V141.299ZM80.3613 141.299V147.773H77.3145H74.2676V141.299V134.824H77.3145H80.3613V141.299ZM114.258 144.536V147.773H111.021H107.783V144.536V141.299H111.021H114.258V144.536ZM161.104 151.201V161.104H151.201H141.299V151.201V141.299H151.201H161.104V151.201ZM73.8867 151.392V154.629H70.6494H67.4121V151.392V148.154H70.6494H73.8867V151.392ZM87.2168 151.392V154.629H83.9795H80.7422V151.392V148.154H83.9795H87.2168V151.392ZM107.402 154.629V161.104H100.928H94.4531V158.057V155.01H97.6904H100.928V151.582V148.154H104.165H107.402V154.629ZM134.443 151.392V154.629H124.541H114.639V151.392V148.154H124.541H134.443V151.392ZM80.3613 158.057V161.104H77.3145H74.2676V158.057V155.01H77.3145H80.3613V158.057ZM73.8867 174.814V181.289H70.6494H67.4121V174.814V168.34H70.6494H73.8867V174.814ZM100.547 174.814V181.289H97.3096H94.0723V184.717V188.145H90.835H87.5977V184.717V181.289H84.1699H80.7422V174.814V168.34H90.6445H100.547V174.814ZM140.918 174.814V181.289H137.871H134.824V174.814V168.34H137.871H140.918V174.814Z" fill="white"/>
<path d="M100.547 124.351V127.969H104.165H107.783V124.351V120.732H104.165H100.547V124.351Z" fill="white"/>
<path d="M147.773 151.39V155.008H151.392H155.01V151.39V147.771H151.392H147.773V151.39Z" fill="white"/>
<path d="M147.773 23.6133V47.2266H171.387H195V23.6133V0H171.387H147.773V23.6133ZM188.145 23.4229V39.9902H171.577H155.01V23.4229V6.85547H171.577H188.145V23.4229Z" fill="white"/>
<path d="M161.104 23.6152V33.8984H171.387H181.67V23.6152V13.332H171.387H161.104V23.6152Z" fill="white"/>
<path d="M134.443 30.2803V33.8984H137.871H141.299V30.2803V26.6621H137.871H134.443V30.2803Z" fill="white"/>
<path d="M120.732 43.6084V47.2266H124.351H127.969V43.6084V39.9902H124.351H120.732V43.6084Z" fill="white"/>
<path d="M134.443 43.6084V47.2266H137.871H141.299V43.6084V39.9902H137.871H134.443V43.6084Z" fill="white"/>
<path d="M33.5156 57.127V60.5547H43.6084H53.7012V67.4102V74.2656H67.2217H80.7422V70.6475V67.0293H74.0771H67.4121V63.6016V60.1738H63.9844H60.5566V56.9365V53.6992H47.0361H33.5156V57.127Z" fill="white"/>
<path d="M140.918 57.127V60.5547H144.346H147.773V63.9824V67.4102H154.629H161.484V63.9824V60.5547H174.814H188.145V67.4102V74.2656H191.572H195V67.2197V60.1738H191.763H188.525V56.9365V53.6992H171.577H154.629V56.9365V60.1738H151.392H148.154V56.9365V53.6992H144.536H140.918V57.127Z" fill="white"/>
<path d="M167.959 73.8867V80.7422H171.577H175.195V77.5049V74.2676H178.433H181.67V70.6494V67.0312H174.814H167.959V73.8867Z" fill="white"/>
<path d="M39.9902 83.9756V87.5938H47.0361H54.082V83.9756V80.3574H47.0361H39.9902V83.9756Z" fill="white"/>
<path d="M188.145 87.2188V94.0742H181.67H175.195V90.6465V87.2188H171.577H167.959V90.8369V94.4551H171.387H174.814V97.502V100.549H171.387H167.959V104.167V107.785H171.577H175.195V104.357V100.93H178.242H181.289V107.785V114.641H188.145H195V111.022V107.404H191.763H188.525V104.167V100.93H191.763H195V90.6465V80.3633H191.572H188.145V87.2188Z" fill="white"/>
<path d="M188.145 124.351V127.969H191.572H195V124.351V120.732H191.572H188.145V124.351Z" fill="white"/>
<path d="M181.289 137.869V141.297H184.717H188.145V148.152V155.008H191.572H195V147.962V140.916H191.763H188.525V137.679V134.441H184.907H181.289V137.869Z" fill="white"/>
<path d="M0 171.387V195H23.6133H47.2266V171.387V147.773H23.6133H0V171.387ZM39.9902 171.577V188.145H23.4229H6.85547V171.577V155.01H23.4229H39.9902V171.577Z" fill="white"/>
<path d="M13.3301 171.389V181.672H23.6133H33.8965V171.389V161.105H23.6133H13.3301V171.389Z" fill="white"/>
<path d="M114.258 191.572V195H117.686H121.113V191.572V188.145H117.686H114.258V191.572Z" fill="white"/>
<path d="M188.145 191.572V195H191.572H195V191.572V188.145H191.572H188.145V191.572Z" fill="white"/>
</g>
<defs>
<clipPath id="clip0_4849_400760">
<rect width="195" height="195" fill="white"/>
</clipPath>
</defs>
</svg>
